solid OBJECT
  facet normal -1.000000e+000 0.000000e+000 0.000000e+000
    outer loop
      vertex -2.085000e+000 -9.350000e-001 0.000000e+000
      vertex -2.085000e+000 -7.050000e-001 0.000000e+000
      vertex -2.085000e+000 -7.050000e-001 -2.500000e-001
    endloop
  endfacet
  facet normal -1.000000e+000 0.000000e+000 0.000000e+000
    outer loop
      vertex -2.085000e+000 -7.050000e-001 0.000000e+000
      vertex -2.085000e+000 -4.750000e-001 0.000000e+000
      vertex -2.085000e+000 -4.750000e-001 -2.500000e-001
    endloop
  endfacet
  facet normal -1.000000e+000 0.000000e+000 0.000000e+000
    outer loop
      vertex -2.085000e+000 -4.750000e-001 -2.500000e-001
      vertex -2.085000e+000 -7.050000e-001 -2.500000e-001
      vertex -2.085000e+000 -7.050000e-001 0.000000e+000
    endloop
  endfacet
  facet normal -1.000000e+000 0.000000e+000 0.000000e+000
    outer loop
      vertex -2.085000e+000 -7.050000e-001 -2.500000e-001
      vertex -2.085000e+000 -9.350000e-001 -2.500000e-001
      vertex -2.085000e+000 -9.350000e-001 0.000000e+000
    endloop
  endfacet
  facet normal 0.000000e+000 1.000000e+000 0.000000e+000
    outer loop
      vertex -2.085000e+000 -4.750000e-001 0.000000e+000
      vertex -1.395000e+000 -4.750000e-001 0.000000e+000
      vertex -1.395000e+000 -4.750000e-001 -2.500000e-001
    endloop
  endfacet
  facet normal 0.000000e+000 1.000000e+000 0.000000e+000
    outer loop
      vertex -1.395000e+000 -4.750000e-001 0.000000e+000
      vertex -7.050000e-001 -4.750000e-001 0.000000e+000
      vertex -7.050000e-001 -4.750000e-001 -2.500000e-001
    endloop
  endfacet
  facet normal 0.000000e+000 1.000000e+000 0.000000e+000
    outer loop
      vertex -7.050000e-001 -4.750000e-001 0.000000e+000
      vertex -1.500000e-002 -4.750000e-001 0.000000e+000
      vertex -1.500000e-002 -4.750000e-001 -2.500000e-001
    endloop
  endfacet
  facet normal 0.000000e+000 1.000000e+000 0.000000e+000
    outer loop
      vertex -1.500000e-002 -4.750000e-001 -2.500000e-001
      vertex -7.050000e-001 -4.750000e-001 -2.500000e-001
      vertex -7.050000e-001 -4.750000e-001 0.000000e+000
    endloop
  endfacet
  facet normal 0.000000e+000 1.000000e+000 0.000000e+000
    outer loop
      vertex -7.050000e-001 -4.750000e-001 -2.500000e-001
      vertex -1.395000e+000 -4.750000e-001 -2.500000e-001
      vertex -1.395000e+000 -4.750000e-001 0.000000e+000
    endloop
  endfacet
  facet normal 0.000000e+000 1.000000e+000 0.000000e+000
    outer loop
      vertex -1.395000e+000 -4.750000e-001 -2.500000e-001
      vertex -2.085000e+000 -4.750000e-001 -2.500000e-001
      vertex -2.085000e+000 -4.750000e-001 0.000000e+000
    endloop
  endfacet
  facet normal 1.000000e+000 0.000000e+000 0.000000e+000
    outer loop
      vertex -1.500000e-002 -4.750000e-001 0.000000e+000
      vertex -1.500000e-002 -7.050000e-001 0.000000e+000
      vertex -1.500000e-002 -7.050000e-001 -2.500000e-001
    endloop
  endfacet
  facet normal 1.000000e+000 0.000000e+000 0.000000e+000
    outer loop
      vertex -1.500000e-002 -7.050000e-001 0.000000e+000
      vertex -1.500000e-002 -9.350000e-001 0.000000e+000
      vertex -1.500000e-002 -9.350000e-001 -2.500000e-001
    endloop
  endfacet
  facet normal 1.000000e+000 0.000000e+000 0.000000e+000
    outer loop
      vertex -1.500000e-002 -9.350000e-001 -2.500000e-001
      vertex -1.500000e-002 -7.050000e-001 -2.500000e-001
      vertex -1.500000e-002 -7.050000e-001 0.000000e+000
    endloop
  endfacet
  facet normal 1.000000e+000 0.000000e+000 0.000000e+000
    outer loop
      vertex -1.500000e-002 -7.050000e-001 -2.500000e-001
      vertex -1.500000e-002 -4.750000e-001 -2.500000e-001
      vertex -1.500000e-002 -4.750000e-001 0.000000e+000
    endloop
  endfacet
  facet normal 0.000000e+000 -1.000000e+000 0.000000e+000
    outer loop
      vertex -1.500000e-002 -9.350000e-001 0.000000e+000
      vertex -7.050000e-001 -9.350000e-001 0.000000e+000
      vertex -7.050000e-001 -9.350000e-001 -2.500000e-001
    endloop
  endfacet
  facet normal 0.000000e+000 -1.000000e+000 0.000000e+000
    outer loop
      vertex -7.050000e-001 -9.350000e-001 0.000000e+000
      vertex -1.395000e+000 -9.350000e-001 0.000000e+000
      vertex -1.395000e+000 -9.350000e-001 -2.500000e-001
    endloop
  endfacet
  facet normal 0.000000e+000 -1.000000e+000 0.000000e+000
    outer loop
      vertex -1.395000e+000 -9.350000e-001 0.000000e+000
      vertex -2.085000e+000 -9.350000e-001 0.000000e+000
      vertex -2.085000e+000 -9.350000e-001 -2.500000e-001
    endloop
  endfacet
  facet normal 0.000000e+000 -1.000000e+000 0.000000e+000
    outer loop
      vertex -2.085000e+000 -9.350000e-001 -2.500000e-001
      vertex -1.395000e+000 -9.350000e-001 -2.500000e-001
      vertex -1.395000e+000 -9.350000e-001 0.000000e+000
    endloop
  endfacet
  facet normal 0.000000e+000 -1.000000e+000 0.000000e+000
    outer loop
      vertex -1.395000e+000 -9.350000e-001 -2.500000e-001
      vertex -7.050000e-001 -9.350000e-001 -2.500000e-001
      vertex -7.050000e-001 -9.350000e-001 0.000000e+000
    endloop
  endfacet
  facet normal 0.000000e+000 -1.000000e+000 0.000000e+000
    outer loop
      vertex -7.050000e-001 -9.350000e-001 -2.500000e-001
      vertex -1.500000e-002 -9.350000e-001 -2.500000e-001
      vertex -1.500000e-002 -9.350000e-001 0.000000e+000
    endloop
  endfacet
  facet normal 0.000000e+000 0.000000e+000 1.000000e+000
    outer loop
      vertex -5.325000e-001 -5.900000e-001 0.000000e+000
      vertex -1.050000e+000 -5.900000e-001 0.000000e+000
      vertex -1.050000e+000 -7.050000e-001 0.000000e+000
    endloop
  endfacet
  facet normal 0.000000e+000 0.000000e+000 1.000000e+000
    outer loop
      vertex -5.325000e-001 -5.900000e-001 0.000000e+000
      vertex -1.050000e+000 -7.050000e-001 0.000000e+000
      vertex -5.325000e-001 -7.050000e-001 0.000000e+000
    endloop
  endfacet
  facet normal 0.000000e+000 0.000000e+000 1.000000e+000
    outer loop
      vertex -1.050000e+000 -5.900000e-001 0.000000e+000
      vertex -1.567500e+000 -5.900000e-001 0.000000e+000
      vertex -1.567500e+000 -7.050000e-001 0.000000e+000
    endloop
  endfacet
  facet normal 0.000000e+000 0.000000e+000 1.000000e+000
    outer loop
      vertex -1.050000e+000 -5.900000e-001 0.000000e+000
      vertex -1.567500e+000 -7.050000e-001 0.000000e+000
      vertex -1.050000e+000 -7.050000e-001 0.000000e+000
    endloop
  endfacet
  facet normal 0.000000e+000 0.000000e+000 1.000000e+000
    outer loop
      vertex -1.050000e+000 -7.050000e-001 0.000000e+000
      vertex -1.567500e+000 -7.050000e-001 0.000000e+000
      vertex -1.567500e+000 -8.200000e-001 0.000000e+000
    endloop
  endfacet
  facet normal 0.000000e+000 0.000000e+000 1.000000e+000
    outer loop
      vertex -1.050000e+000 -7.050000e-001 0.000000e+000
      vertex -1.567500e+000 -8.200000e-001 0.000000e+000
      vertex -1.050000e+000 -8.200000e-001 0.000000e+000
    endloop
  endfacet
  facet normal 0.000000e+000 0.000000e+000 1.000000e+000
    outer loop
      vertex -5.325000e-001 -7.050000e-001 0.000000e+000
      vertex -1.050000e+000 -7.050000e-001 0.000000e+000
      vertex -1.050000e+000 -8.200000e-001 0.000000e+000
    endloop
  endfacet
  facet normal 0.000000e+000 0.000000e+000 1.000000e+000
    outer loop
      vertex -5.325000e-001 -7.050000e-001 0.000000e+000
      vertex -1.050000e+000 -8.200000e-001 0.000000e+000
      vertex -5.325000e-001 -8.200000e-001 0.000000e+000
    endloop
  endfacet
  facet normal 0.000000e+000 0.000000e+000 1.000000e+000
    outer loop
      vertex -2.085000e+000 -4.750000e-001 0.000000e+000
      vertex -2.085000e+000 -7.050000e-001 0.000000e+000
      vertex -1.567500e+000 -5.900000e-001 0.000000e+000
    endloop
  endfacet
  facet normal 0.000000e+000 0.000000e+000 1.000000e+000
    outer loop
      vertex -2.085000e+000 -7.050000e-001 0.000000e+000
      vertex -2.085000e+000 -9.350000e-001 0.000000e+000
      vertex -1.567500e+000 -8.200000e-001 0.000000e+000
    endloop
  endfacet
  facet normal 0.000000e+000 0.000000e+000 1.000000e+000
    outer loop
      vertex -1.500000e-002 -4.750000e-001 0.000000e+000
      vertex -7.050000e-001 -4.750000e-001 0.000000e+000
      vertex -5.325000e-001 -5.900000e-001 0.000000e+000
    endloop
  endfacet
  facet normal 0.000000e+000 0.000000e+000 1.000000e+000
    outer loop
      vertex -7.050000e-001 -4.750000e-001 0.000000e+000
      vertex -1.395000e+000 -4.750000e-001 0.000000e+000
      vertex -1.050000e+000 -5.900000e-001 0.000000e+000
    endloop
  endfacet
  facet normal 0.000000e+000 0.000000e+000 1.000000e+000
    outer loop
      vertex -1.395000e+000 -4.750000e-001 0.000000e+000
      vertex -2.085000e+000 -4.750000e-001 0.000000e+000
      vertex -1.567500e+000 -5.900000e-001 0.000000e+000
    endloop
  endfacet
  facet normal 0.000000e+000 0.000000e+000 1.000000e+000
    outer loop
      vertex -1.500000e-002 -9.350000e-001 0.000000e+000
      vertex -1.500000e-002 -7.050000e-001 0.000000e+000
      vertex -5.325000e-001 -8.200000e-001 0.000000e+000
    endloop
  endfacet
  facet normal 0.000000e+000 0.000000e+000 1.000000e+000
    outer loop
      vertex -1.500000e-002 -7.050000e-001 0.000000e+000
      vertex -1.500000e-002 -4.750000e-001 0.000000e+000
      vertex -5.325000e-001 -5.900000e-001 0.000000e+000
    endloop
  endfacet
  facet normal 0.000000e+000 0.000000e+000 1.000000e+000
    outer loop
      vertex -2.085000e+000 -9.350000e-001 0.000000e+000
      vertex -1.395000e+000 -9.350000e-001 0.000000e+000
      vertex -1.567500e+000 -8.200000e-001 0.000000e+000
    endloop
  endfacet
  facet normal 0.000000e+000 0.000000e+000 1.000000e+000
    outer loop
      vertex -1.395000e+000 -9.350000e-001 0.000000e+000
      vertex -7.050000e-001 -9.350000e-001 0.000000e+000
      vertex -1.050000e+000 -8.200000e-001 0.000000e+000
    endloop
  endfacet
  facet normal 0.000000e+000 0.000000e+000 1.000000e+000
    outer loop
      vertex -7.050000e-001 -9.350000e-001 0.000000e+000
      vertex -1.500000e-002 -9.350000e-001 0.000000e+000
      vertex -5.325000e-001 -8.200000e-001 0.000000e+000
    endloop
  endfacet
  facet normal 0.000000e+000 0.000000e+000 1.000000e+000
    outer loop
      vertex -1.050000e+000 -5.900000e-001 0.000000e+000
      vertex -5.325000e-001 -5.900000e-001 0.000000e+000
      vertex -7.050000e-001 -4.750000e-001 0.000000e+000
    endloop
  endfacet
  facet normal 0.000000e+000 0.000000e+000 1.000000e+000
    outer loop
      vertex -5.325000e-001 -5.900000e-001 0.000000e+000
      vertex -5.325000e-001 -7.050000e-001 0.000000e+000
      vertex -1.500000e-002 -7.050000e-001 0.000000e+000
    endloop
  endfacet
  facet normal 0.000000e+000 0.000000e+000 1.000000e+000
    outer loop
      vertex -1.567500e+000 -5.900000e-001 0.000000e+000
      vertex -1.050000e+000 -5.900000e-001 0.000000e+000
      vertex -1.395000e+000 -4.750000e-001 0.000000e+000
    endloop
  endfacet
  facet normal 0.000000e+000 0.000000e+000 1.000000e+000
    outer loop
      vertex -1.567500e+000 -7.050000e-001 0.000000e+000
      vertex -1.567500e+000 -5.900000e-001 0.000000e+000
      vertex -2.085000e+000 -7.050000e-001 0.000000e+000
    endloop
  endfacet
  facet normal 0.000000e+000 0.000000e+000 1.000000e+000
    outer loop
      vertex -1.567500e+000 -8.200000e-001 0.000000e+000
      vertex -1.567500e+000 -7.050000e-001 0.000000e+000
      vertex -2.085000e+000 -7.050000e-001 0.000000e+000
    endloop
  endfacet
  facet normal 0.000000e+000 0.000000e+000 1.000000e+000
    outer loop
      vertex -1.050000e+000 -8.200000e-001 0.000000e+000
      vertex -1.567500e+000 -8.200000e-001 0.000000e+000
      vertex -1.395000e+000 -9.350000e-001 0.000000e+000
    endloop
  endfacet
  facet normal 0.000000e+000 0.000000e+000 1.000000e+000
    outer loop
      vertex -5.325000e-001 -8.200000e-001 0.000000e+000
      vertex -1.050000e+000 -8.200000e-001 0.000000e+000
      vertex -7.050000e-001 -9.350000e-001 0.000000e+000
    endloop
  endfacet
  facet normal 0.000000e+000 0.000000e+000 1.000000e+000
    outer loop
      vertex -5.325000e-001 -7.050000e-001 0.000000e+000
      vertex -5.325000e-001 -8.200000e-001 0.000000e+000
      vertex -1.500000e-002 -7.050000e-001 0.000000e+000
    endloop
  endfacet
  facet normal 0.000000e+000 0.000000e+000 -1.000000e+000
    outer loop
      vertex -5.325000e-001 -5.900000e-001 -2.500000e-001
      vertex -5.325000e-001 -7.050000e-001 -2.500000e-001
      vertex -1.050000e+000 -7.050000e-001 -2.500000e-001
    endloop
  endfacet
  facet normal 0.000000e+000 0.000000e+000 -1.000000e+000
    outer loop
      vertex -5.325000e-001 -5.900000e-001 -2.500000e-001
      vertex -1.050000e+000 -7.050000e-001 -2.500000e-001
      vertex -1.050000e+000 -5.900000e-001 -2.500000e-001
    endloop
  endfacet
  facet normal 0.000000e+000 0.000000e+000 -1.000000e+000
    outer loop
      vertex -5.325000e-001 -7.050000e-001 -2.500000e-001
      vertex -5.325000e-001 -8.200000e-001 -2.500000e-001
      vertex -1.050000e+000 -8.200000e-001 -2.500000e-001
    endloop
  endfacet
  facet normal 0.000000e+000 0.000000e+000 -1.000000e+000
    outer loop
      vertex -5.325000e-001 -7.050000e-001 -2.500000e-001
      vertex -1.050000e+000 -8.200000e-001 -2.500000e-001
      vertex -1.050000e+000 -7.050000e-001 -2.500000e-001
    endloop
  endfacet
  facet normal 0.000000e+000 0.000000e+000 -1.000000e+000
    outer loop
      vertex -1.050000e+000 -7.050000e-001 -2.500000e-001
      vertex -1.050000e+000 -8.200000e-001 -2.500000e-001
      vertex -1.567500e+000 -8.200000e-001 -2.500000e-001
    endloop
  endfacet
  facet normal 0.000000e+000 0.000000e+000 -1.000000e+000
    outer loop
      vertex -1.050000e+000 -7.050000e-001 -2.500000e-001
      vertex -1.567500e+000 -8.200000e-001 -2.500000e-001
      vertex -1.567500e+000 -7.050000e-001 -2.500000e-001
    endloop
  endfacet
  facet normal 0.000000e+000 0.000000e+000 -1.000000e+000
    outer loop
      vertex -1.050000e+000 -5.900000e-001 -2.500000e-001
      vertex -1.050000e+000 -7.050000e-001 -2.500000e-001
      vertex -1.567500e+000 -7.050000e-001 -2.500000e-001
    endloop
  endfacet
  facet normal 0.000000e+000 0.000000e+000 -1.000000e+000
    outer loop
      vertex -1.050000e+000 -5.900000e-001 -2.500000e-001
      vertex -1.567500e+000 -7.050000e-001 -2.500000e-001
      vertex -1.567500e+000 -5.900000e-001 -2.500000e-001
    endloop
  endfacet
  facet normal 0.000000e+000 0.000000e+000 -1.000000e+000
    outer loop
      vertex -2.085000e+000 -9.350000e-001 -2.500000e-001
      vertex -2.085000e+000 -7.050000e-001 -2.500000e-001
      vertex -1.567500e+000 -8.200000e-001 -2.500000e-001
    endloop
  endfacet
  facet normal 0.000000e+000 0.000000e+000 -1.000000e+000
    outer loop
      vertex -2.085000e+000 -7.050000e-001 -2.500000e-001
      vertex -2.085000e+000 -4.750000e-001 -2.500000e-001
      vertex -1.567500e+000 -5.900000e-001 -2.500000e-001
    endloop
  endfacet
  facet normal 0.000000e+000 0.000000e+000 -1.000000e+000
    outer loop
      vertex -2.085000e+000 -4.750000e-001 -2.500000e-001
      vertex -1.395000e+000 -4.750000e-001 -2.500000e-001
      vertex -1.567500e+000 -5.900000e-001 -2.500000e-001
    endloop
  endfacet
  facet normal 0.000000e+000 0.000000e+000 -1.000000e+000
    outer loop
      vertex -1.395000e+000 -4.750000e-001 -2.500000e-001
      vertex -7.050000e-001 -4.750000e-001 -2.500000e-001
      vertex -1.050000e+000 -5.900000e-001 -2.500000e-001
    endloop
  endfacet
  facet normal 0.000000e+000 0.000000e+000 -1.000000e+000
    outer loop
      vertex -7.050000e-001 -4.750000e-001 -2.500000e-001
      vertex -1.500000e-002 -4.750000e-001 -2.500000e-001
      vertex -5.325000e-001 -5.900000e-001 -2.500000e-001
    endloop
  endfacet
  facet normal 0.000000e+000 0.000000e+000 -1.000000e+000
    outer loop
      vertex -1.500000e-002 -4.750000e-001 -2.500000e-001
      vertex -1.500000e-002 -7.050000e-001 -2.500000e-001
      vertex -5.325000e-001 -5.900000e-001 -2.500000e-001
    endloop
  endfacet
  facet normal 0.000000e+000 0.000000e+000 -1.000000e+000
    outer loop
      vertex -1.500000e-002 -7.050000e-001 -2.500000e-001
      vertex -1.500000e-002 -9.350000e-001 -2.500000e-001
      vertex -5.325000e-001 -8.200000e-001 -2.500000e-001
    endloop
  endfacet
  facet normal 0.000000e+000 0.000000e+000 -1.000000e+000
    outer loop
      vertex -1.500000e-002 -9.350000e-001 -2.500000e-001
      vertex -7.050000e-001 -9.350000e-001 -2.500000e-001
      vertex -5.325000e-001 -8.200000e-001 -2.500000e-001
    endloop
  endfacet
  facet normal 0.000000e+000 0.000000e+000 -1.000000e+000
    outer loop
      vertex -7.050000e-001 -9.350000e-001 -2.500000e-001
      vertex -1.395000e+000 -9.350000e-001 -2.500000e-001
      vertex -1.050000e+000 -8.200000e-001 -2.500000e-001
    endloop
  endfacet
  facet normal 0.000000e+000 0.000000e+000 -1.000000e+000
    outer loop
      vertex -1.395000e+000 -9.350000e-001 -2.500000e-001
      vertex -2.085000e+000 -9.350000e-001 -2.500000e-001
      vertex -1.567500e+000 -8.200000e-001 -2.500000e-001
    endloop
  endfacet
  facet normal 0.000000e+000 0.000000e+000 -1.000000e+000
    outer loop
      vertex -5.325000e-001 -7.050000e-001 -2.500000e-001
      vertex -5.325000e-001 -5.900000e-001 -2.500000e-001
      vertex -1.500000e-002 -7.050000e-001 -2.500000e-001
    endloop
  endfacet
  facet normal 0.000000e+000 0.000000e+000 -1.000000e+000
    outer loop
      vertex -5.325000e-001 -5.900000e-001 -2.500000e-001
      vertex -1.050000e+000 -5.900000e-001 -2.500000e-001
      vertex -7.050000e-001 -4.750000e-001 -2.500000e-001
    endloop
  endfacet
  facet normal 0.000000e+000 0.000000e+000 -1.000000e+000
    outer loop
      vertex -5.325000e-001 -8.200000e-001 -2.500000e-001
      vertex -5.325000e-001 -7.050000e-001 -2.500000e-001
      vertex -1.500000e-002 -7.050000e-001 -2.500000e-001
    endloop
  endfacet
  facet normal 0.000000e+000 0.000000e+000 -1.000000e+000
    outer loop
      vertex -1.050000e+000 -8.200000e-001 -2.500000e-001
      vertex -5.325000e-001 -8.200000e-001 -2.500000e-001
      vertex -7.050000e-001 -9.350000e-001 -2.500000e-001
    endloop
  endfacet
  facet normal 0.000000e+000 0.000000e+000 -1.000000e+000
    outer loop
      vertex -1.567500e+000 -8.200000e-001 -2.500000e-001
      vertex -1.050000e+000 -8.200000e-001 -2.500000e-001
      vertex -1.395000e+000 -9.350000e-001 -2.500000e-001
    endloop
  endfacet
  facet normal 0.000000e+000 0.000000e+000 -1.000000e+000
    outer loop
      vertex -1.567500e+000 -7.050000e-001 -2.500000e-001
      vertex -1.567500e+000 -8.200000e-001 -2.500000e-001
      vertex -2.085000e+000 -7.050000e-001 -2.500000e-001
    endloop
  endfacet
  facet normal 0.000000e+000 0.000000e+000 -1.000000e+000
    outer loop
      vertex -1.567500e+000 -5.900000e-001 -2.500000e-001
      vertex -1.567500e+000 -7.050000e-001 -2.500000e-001
      vertex -2.085000e+000 -7.050000e-001 -2.500000e-001
    endloop
  endfacet
  facet normal 0.000000e+000 0.000000e+000 -1.000000e+000
    outer loop
      vertex -1.050000e+000 -5.900000e-001 -2.500000e-001
      vertex -1.567500e+000 -5.900000e-001 -2.500000e-001
      vertex -1.395000e+000 -4.750000e-001 -2.500000e-001
    endloop
  endfacet
endsolid OBJECT
